<svg xmlns="http://www.w3.org/2000/svg" version="1.1" xmlns:xlink="http://www.w3.org/1999/xlink"
    xmlns:svgjs="http://svgjs.com/svgjs" width="1000" height="1000">
    <g class="paper-bag-logo" opacity="1">
        <defs id="SvgjsDefs1274">
            <linearGradient id="SvgjsLinearGradient_5tC4pCdC" gradientUnits="userSpaceOnUse" x1="17.63500022888184"
                y1="73.20499897003174" x2="72.36499977111815" y2="18.474999427795414">
                <stop id="SvgjsStop1277" stop-color="#debb54" offset="0.05"></stop>
                <stop id="SvgjsStop1278" stop-color="#95771d" offset="0.95"></stop>
            </linearGradient>
        </defs>
        <g id="SvgjsG1275" transform="scale(0.5493453787955639)" opacity="1">
            <g id="SvgjsG1279" class="p7lTxw3_u2"
                transform="translate(92.38793814432992, -39.60219504798655) scale(2.5782680412371137)"
                light-content="false" non-strokable="false" fill="url(#SvgjsLinearGradient_5tC4pCdC)">
                <path d="M45 15.36l-24.25 8.06L45 76.32l24.25-52.9zm-20.71 9.52L45 18l20.81 6.92L45 70.32V33z"></path>
            </g>
            <g id="SvgjsG1280" class="text" transform="translate(207.3000030517578, 223.6312188782871) scale(1)"
                light-content="false" fill="#95771d">
                <path
                    d="M-173.79 -46.2C-174.25 -45.76 -174.48 -45.2 -174.48 -44.52L-174.48 -8.34L-203.16 -46.02C-203.64 -46.58 -204.24 -46.86 -204.96 -46.86C-205.64 -46.86 -206.2 -46.64 -206.64 -46.2C-207.08 -45.76 -207.3 -45.2 -207.3 -44.52L-207.3 -2.34C-207.3 -1.66 -207.08 -1.1 -206.64 -0.66C-206.2 -0.22 -205.64 0 -204.96 0C-204.28 0 -203.72 -0.23 -203.28 -0.69C-202.84 -1.15 -202.62 -1.7 -202.62 -2.34L-202.62 -38.46L-173.88 -0.78C-173.52 -0.26 -172.94 0 -172.14 0C-171.46 0 -170.9 -0.23 -170.46 -0.69C-170.02 -1.15 -169.8 -1.7 -169.8 -2.34L-169.8 -44.52C-169.8 -45.2 -170.02 -45.76 -170.46 -46.2C-170.9 -46.64 -171.46 -46.86 -172.14 -46.86C-172.78 -46.86 -173.33 -46.64 -173.79 -46.2Z M-153.78 -0.66C-153.34 -1.1 -153.12 -1.66 -153.12 -2.34L-153.12 -16.56L-143.46 -16.56C-140.54 -16.56 -137.93 -17.2 -135.63 -18.48C-133.33 -19.76 -131.54 -21.54 -130.26 -23.82C-128.98 -26.1 -128.34 -28.7 -128.34 -31.62C-128.34 -34.58 -128.98 -37.21 -130.26 -39.51C-131.54 -41.81 -133.33 -43.61 -135.63 -44.91C-137.93 -46.21 -140.54 -46.86 -143.46 -46.86L-155.46 -46.86C-156.14 -46.86 -156.7 -46.64 -157.14 -46.2C-157.58 -45.76 -157.8 -45.2 -157.8 -44.52L-157.8 -2.34C-157.8 -1.66 -157.58 -1.1 -157.14 -0.66C-156.7 -0.22 -156.14 0 -155.46 0C-154.78 0 -154.22 -0.22 -153.78 -0.66ZM-138 -22.41C-139.6 -21.51 -141.42 -21.06 -143.46 -21.06L-153.12 -21.06L-153.12 -42.36L-143.46 -42.36C-141.42 -42.36 -139.6 -41.9 -138 -40.98C-136.4 -40.06 -135.15 -38.79 -134.25 -37.17C-133.35 -35.55 -132.9 -33.7 -132.9 -31.62C-132.9 -29.58 -133.35 -27.76 -134.25 -26.16C-135.15 -24.56 -136.4 -23.31 -138 -22.41Z M-98.34 -45.36C-100.74 -46.76 -103.52 -47.46 -106.68 -47.46C-109.6 -47.46 -112.21 -46.97 -114.51 -45.99C-116.81 -45.01 -118.61 -43.61 -119.91 -41.79C-121.21 -39.97 -121.86 -37.86 -121.86 -35.46C-121.86 -32.06 -120.53 -29.19 -117.87 -26.85C-115.21 -24.51 -111.56 -23.06 -106.92 -22.5C-103.2 -22.02 -100.41 -20.92 -98.55 -19.2C-96.69 -17.48 -95.76 -15.36 -95.76 -12.84C-95.76 -10 -96.76 -7.79 -98.76 -6.21C-100.76 -4.63 -103.4 -3.84 -106.68 -3.84C-109.52 -3.84 -112.01 -4.39 -114.15 -5.49C-116.29 -6.59 -117.82 -8.04 -118.74 -9.84C-118.94 -10.32 -119.25 -10.69 -119.67 -10.95C-120.09 -11.21 -120.54 -11.34 -121.02 -11.34C-121.74 -11.34 -122.31 -11.15 -122.73 -10.77C-123.15 -10.39 -123.36 -9.92 -123.36 -9.36C-123.36 -9 -123.28 -8.68 -123.12 -8.4C-121.84 -5.64 -119.73 -3.45 -116.79 -1.83C-113.85 -0.21 -110.48 0.6 -106.68 0.6C-103.76 0.6 -101.12 0.07 -98.76 -0.99C-96.4 -2.05 -94.54 -3.6 -93.18 -5.64C-91.82 -7.68 -91.14 -10.1 -91.14 -12.9C-91.14 -16.7 -92.36 -19.76 -94.8 -22.08C-97.24 -24.4 -100.94 -25.92 -105.9 -26.64C-113.46 -27.64 -117.24 -30.48 -117.24 -35.16C-117.24 -37.68 -116.3 -39.62 -114.42 -40.98C-112.54 -42.34 -109.98 -43.02 -106.74 -43.02C-102.22 -42.98 -98.84 -41.2 -96.6 -37.68C-96.36 -37.28 -96.05 -36.97 -95.67 -36.75C-95.29 -36.53 -94.88 -36.42 -94.44 -36.42C-94.04 -36.42 -93.68 -36.5 -93.36 -36.66C-92.64 -37.1 -92.28 -37.7 -92.28 -38.46C-92.28 -38.98 -92.42 -39.46 -92.7 -39.9C-94.06 -42.14 -95.94 -43.96 -98.34 -45.36Z M-31.98 -46.26C-32.38 -46.66 -32.9 -46.86 -33.54 -46.86L-66.72 -46.86C-67.36 -46.86 -67.88 -46.66 -68.28 -46.26C-68.68 -45.86 -68.88 -45.34 -68.88 -44.7C-68.88 -44.1 -68.68 -43.6 -68.28 -43.2C-67.88 -42.8 -67.36 -42.6 -66.72 -42.6L-52.5 -42.6L-52.5 -2.34C-52.5 -1.7 -52.27 -1.15 -51.81 -0.69C-51.35 -0.23 -50.8 0 -50.16 0C-49.48 0 -48.92 -0.23 -48.48 -0.69C-48.04 -1.15 -47.82 -1.7 -47.82 -2.34L-47.82 -42.6L-33.54 -42.6C-32.9 -42.6 -32.38 -42.8 -31.98 -43.2C-31.58 -43.6 -31.38 -44.1 -31.38 -44.7C-31.38 -45.34 -31.58 -45.86 -31.98 -46.26Z M5.34 -1.98C5.34 -2.46 5.16 -3 4.8 -3.6L-5.04 -19.32C-2.2 -20.32 0.05 -21.98 1.71 -24.3C3.37 -26.62 4.2 -29.32 4.2 -32.4C4.2 -35.2 3.55 -37.7 2.25 -39.9C0.95 -42.1 -0.84 -43.81 -3.12 -45.03C-5.4 -46.25 -8 -46.86 -10.92 -46.86L-22.14 -46.86C-22.82 -46.86 -23.38 -46.64 -23.82 -46.2C-24.26 -45.76 -24.48 -45.2 -24.48 -44.52L-24.48 -2.34C-24.48 -1.66 -24.26 -1.1 -23.82 -0.66C-23.38 -0.22 -22.82 0 -22.14 0C-21.46 0 -20.9 -0.22 -20.46 -0.66C-20.02 -1.1 -19.8 -1.66 -19.8 -2.34L-19.8 -18.36L-10.92 -18.36L-9.9 -18.36L0.9 -1.2C1.14 -0.8 1.42 -0.5 1.74 -0.3C2.06 -0.1 2.46 0 2.94 0C3.66 0 4.24 -0.18 4.68 -0.54C5.12 -0.9 5.34 -1.38 5.34 -1.98ZM-10.92 -22.86L-19.8 -22.86L-19.8 -42.36L-10.92 -42.36C-8.88 -42.36 -7.06 -41.94 -5.46 -41.1C-3.86 -40.26 -2.61 -39.08 -1.71 -37.56C-0.81 -36.04 -0.36 -34.32 -0.36 -32.4C-0.36 -30.56 -0.81 -28.92 -1.71 -27.48C-2.61 -26.04 -3.87 -24.91 -5.49 -24.09C-7.11 -23.27 -8.92 -22.86 -10.92 -22.86Z M48 -2.34C48 -2.7 47.92 -3.02 47.76 -3.3L30.06 -45.24C29.66 -46.32 28.92 -46.86 27.84 -46.86C26.76 -46.86 26 -46.32 25.56 -45.24L7.92 -3.36C7.8 -3.08 7.74 -2.74 7.74 -2.34C7.74 -1.7 7.95 -1.15 8.37 -0.69C8.79 -0.23 9.34 0 10.02 0C11.14 0 11.86 -0.48 12.18 -1.44L16.2 -11.16L39.42 -11.16L43.44 -1.44C43.88 -0.48 44.62 0 45.66 0C46.3 0 46.85 -0.23 47.31 -0.69C47.77 -1.15 48 -1.7 48 -2.34ZM37.8 -15.18L17.88 -15.18L27.84 -39.24Z M80.04 -43.86C76.48 -45.86 72.44 -46.86 67.92 -46.86L57.12 -46.86C56.44 -46.86 55.88 -46.64 55.44 -46.2C55 -45.76 54.78 -45.2 54.78 -44.52L54.78 -2.34C54.78 -1.66 55 -1.1 55.44 -0.66C55.88 -0.22 56.44 0 57.12 0L67.92 0C72.44 0 76.48 -1 80.04 -3C83.6 -5 86.37 -7.78 88.35 -11.34C90.33 -14.9 91.32 -18.94 91.32 -23.46C91.32 -27.98 90.33 -32.01 88.35 -35.55C86.37 -39.09 83.6 -41.86 80.04 -43.86ZM77.64 -6.69C74.8 -5.03 71.56 -4.2 67.92 -4.2L59.46 -4.2L59.46 -42.66L67.92 -42.66C71.56 -42.66 74.8 -41.84 77.64 -40.2C80.48 -38.56 82.7 -36.28 84.3 -33.36C85.9 -30.44 86.7 -27.14 86.7 -23.46C86.7 -19.78 85.9 -16.48 84.3 -13.56C82.7 -10.64 80.48 -8.35 77.64 -6.69Z M133.14 -3.87C132.7 -4.29 132.14 -4.5 131.46 -4.5L105.66 -4.5L105.66 -21.24L124.44 -21.24C125.08 -21.24 125.63 -21.46 126.09 -21.9C126.55 -22.34 126.78 -22.88 126.78 -23.52C126.78 -24.16 126.56 -24.7 126.12 -25.14C125.68 -25.58 125.12 -25.8 124.44 -25.8L105.66 -25.8L105.66 -42.36L131.46 -42.36C132.14 -42.36 132.7 -42.57 133.14 -42.99C133.58 -43.41 133.8 -43.94 133.8 -44.58C133.8 -45.22 133.58 -45.76 133.14 -46.2C132.7 -46.64 132.14 -46.86 131.46 -46.86L103.32 -46.86C102.68 -46.86 102.13 -46.64 101.67 -46.2C101.21 -45.76 100.98 -45.2 100.98 -44.52L100.98 -2.34C100.98 -1.7 101.21 -1.15 101.67 -0.69C102.13 -0.23 102.68 0 103.32 0L131.46 0C132.14 0 132.7 -0.22 133.14 -0.66C133.58 -1.1 133.8 -1.64 133.8 -2.28C133.8 -2.92 133.58 -3.45 133.14 -3.87Z M172.32 -1.98C172.32 -2.46 172.14 -3 171.78 -3.6L161.94 -19.32C164.78 -20.32 167.03 -21.98 168.69 -24.3C170.35 -26.62 171.18 -29.32 171.18 -32.4C171.18 -35.2 170.53 -37.7 169.23 -39.9C167.93 -42.1 166.14 -43.81 163.86 -45.03C161.58 -46.25 158.98 -46.86 156.06 -46.86L144.84 -46.86C144.16 -46.86 143.6 -46.64 143.16 -46.2C142.72 -45.76 142.5 -45.2 142.5 -44.52L142.5 -2.34C142.5 -1.66 142.72 -1.1 143.16 -0.66C143.6 -0.22 144.16 0 144.84 0C145.52 0 146.08 -0.22 146.52 -0.66C146.96 -1.1 147.18 -1.66 147.18 -2.34L147.18 -18.36L156.06 -18.36L157.08 -18.36L167.88 -1.2C168.12 -0.8 168.4 -0.5 168.72 -0.3C169.04 -0.1 169.44 0 169.92 0C170.64 0 171.22 -0.18 171.66 -0.54C172.1 -0.9 172.32 -1.38 172.32 -1.98ZM156.06 -22.86L147.18 -22.86L147.18 -42.36L156.06 -42.36C158.1 -42.36 159.92 -41.94 161.52 -41.1C163.12 -40.26 164.37 -39.08 165.27 -37.56C166.17 -36.04 166.62 -34.32 166.62 -32.4C166.62 -30.56 166.17 -28.92 165.27 -27.48C164.37 -26.04 163.11 -24.91 161.49 -24.09C159.87 -23.27 158.06 -22.86 156.06 -22.86Z M202.32 -45.36C199.92 -46.76 197.14 -47.46 193.98 -47.46C191.06 -47.46 188.45 -46.97 186.15 -45.99C183.85 -45.01 182.05 -43.61 180.75 -41.79C179.45 -39.97 178.8 -37.86 178.8 -35.46C178.8 -32.06 180.13 -29.19 182.79 -26.85C185.45 -24.51 189.1 -23.06 193.74 -22.5C197.46 -22.02 200.25 -20.92 202.11 -19.2C203.97 -17.48 204.9 -15.36 204.9 -12.84C204.9 -10 203.9 -7.79 201.9 -6.21C199.9 -4.63 197.26 -3.84 193.98 -3.84C191.14 -3.84 188.65 -4.39 186.51 -5.49C184.37 -6.59 182.84 -8.04 181.92 -9.84C181.72 -10.32 181.41 -10.69 180.99 -10.95C180.57 -11.21 180.12 -11.34 179.64 -11.34C178.92 -11.34 178.35 -11.15 177.93 -10.77C177.51 -10.39 177.3 -9.92 177.3 -9.36C177.3 -9 177.38 -8.68 177.54 -8.4C178.82 -5.64 180.93 -3.45 183.87 -1.83C186.81 -0.21 190.18 0.6 193.98 0.6C196.9 0.6 199.54 0.07 201.9 -0.99C204.26 -2.05 206.12 -3.6 207.48 -5.64C208.84 -7.68 209.52 -10.1 209.52 -12.9C209.52 -16.7 208.3 -19.76 205.86 -22.08C203.42 -24.4 199.72 -25.92 194.76 -26.64C187.2 -27.64 183.42 -30.48 183.42 -35.16C183.42 -37.68 184.36 -39.62 186.24 -40.98C188.12 -42.34 190.68 -43.02 193.92 -43.02C198.44 -42.98 201.82 -41.2 204.06 -37.68C204.3 -37.28 204.61 -36.97 204.99 -36.75C205.37 -36.53 205.78 -36.42 206.22 -36.42C206.62 -36.42 206.98 -36.5 207.3 -36.66C208.02 -37.1 208.38 -37.7 208.38 -38.46C208.38 -38.98 208.24 -39.46 207.96 -39.9C206.6 -42.14 204.72 -43.96 202.32 -45.36Z">
                </path>
            </g>
            <g id="SvgjsG1281" class="text" transform="translate(208.4100021362305, 261.9712195649326) scale(1)"
                light-content="false" fill="#95771d">
                <path
                    d="M-77.53 -18.55C-77.66 -18.68 -77.84 -18.74 -78.06 -18.74C-78.27 -18.74 -78.44 -18.68 -78.58 -18.55C-78.71 -18.42 -78.78 -18.25 -78.78 -18.02L-78.78 -10.54C-79.31 -11.38 -80.03 -12.05 -80.95 -12.54C-81.87 -13.03 -82.9 -13.27 -84.04 -13.27C-85.3 -13.27 -86.44 -12.98 -87.47 -12.4C-88.49 -11.81 -89.3 -11.01 -89.88 -9.98C-90.46 -8.96 -90.76 -7.82 -90.76 -6.58C-90.76 -5.31 -90.46 -4.17 -89.88 -3.14C-89.3 -2.12 -88.49 -1.32 -87.47 -0.73C-86.44 -0.15 -85.3 0.14 -84.04 0.14C-82.8 0.14 -81.68 -0.14 -80.66 -0.71C-79.65 -1.28 -78.84 -2.06 -78.25 -3.07C-77.66 -4.08 -77.36 -5.2 -77.34 -6.43L-77.34 -6.48L-77.34 -18.02C-77.34 -18.25 -77.4 -18.42 -77.53 -18.55ZM-81.35 -1.91C-82.15 -1.44 -83.04 -1.2 -84.04 -1.2C-85.03 -1.2 -85.92 -1.44 -86.72 -1.91C-87.52 -2.38 -88.16 -3.02 -88.62 -3.84C-89.08 -4.66 -89.32 -5.57 -89.32 -6.58C-89.32 -7.58 -89.08 -8.5 -88.62 -9.31C-88.16 -10.13 -87.52 -10.77 -86.72 -11.23C-85.92 -11.7 -85.03 -11.93 -84.04 -11.93C-83.04 -11.93 -82.15 -11.7 -81.35 -11.23C-80.55 -10.77 -79.92 -10.13 -79.46 -9.31C-79.01 -8.5 -78.78 -7.58 -78.78 -6.58C-78.78 -5.57 -79.01 -4.66 -79.46 -3.84C-79.92 -3.02 -80.55 -2.38 -81.35 -1.91Z M-64.44 -12.42C-65.36 -12.97 -66.4 -13.25 -67.57 -13.25C-68.77 -13.25 -69.84 -12.96 -70.78 -12.4C-71.71 -11.83 -72.44 -11.04 -72.96 -10.02C-73.48 -9 -73.74 -7.85 -73.74 -6.55C-73.74 -5.27 -73.46 -4.12 -72.9 -3.11C-72.34 -2.09 -71.57 -1.3 -70.58 -0.73C-69.6 -0.16 -68.48 0.12 -67.21 0.12C-66.46 0.12 -65.67 -0.03 -64.85 -0.34C-64.02 -0.64 -63.36 -1.02 -62.84 -1.49C-62.7 -1.63 -62.63 -1.78 -62.63 -1.94C-62.63 -2.14 -62.72 -2.3 -62.89 -2.45C-63 -2.54 -63.15 -2.59 -63.32 -2.59C-63.5 -2.59 -63.67 -2.53 -63.83 -2.4C-64.2 -2.05 -64.7 -1.76 -65.33 -1.55C-65.96 -1.33 -66.59 -1.22 -67.21 -1.22C-68.14 -1.22 -68.98 -1.43 -69.73 -1.85C-70.48 -2.26 -71.08 -2.84 -71.53 -3.59C-71.98 -4.33 -72.23 -5.18 -72.28 -6.12L-62.22 -6.12C-62.01 -6.12 -61.84 -6.18 -61.72 -6.3C-61.59 -6.42 -61.52 -6.58 -61.52 -6.79C-61.52 -8.04 -61.78 -9.15 -62.29 -10.13C-62.8 -11.1 -63.52 -11.87 -64.44 -12.42ZM-70.73 -10.66C-69.87 -11.49 -68.82 -11.9 -67.57 -11.9C-66.28 -11.9 -65.2 -11.49 -64.36 -10.66C-63.51 -9.82 -63.03 -8.73 -62.92 -7.37L-72.25 -7.37C-72.09 -8.73 -71.58 -9.82 -70.73 -10.66Z M-48.16 -12.48C-48.16 -12.77 -48.29 -12.98 -48.56 -13.1C-48.66 -13.15 -48.76 -13.18 -48.88 -13.18C-49.16 -13.18 -49.37 -13.04 -49.5 -12.77L-54.35 -2.09L-59.27 -12.74C-59.4 -13.02 -59.6 -13.15 -59.87 -13.15C-59.96 -13.15 -60.06 -13.13 -60.16 -13.08C-60.43 -12.95 -60.56 -12.74 -60.56 -12.46C-60.56 -12.34 -60.55 -12.26 -60.52 -12.19L-55.04 -0.48C-54.98 -0.32 -54.89 -0.2 -54.77 -0.11C-54.65 -0.02 -54.52 0.02 -54.37 0.02C-54.02 0.02 -53.76 -0.14 -53.6 -0.48L-48.2 -12.22C-48.17 -12.28 -48.16 -12.37 -48.16 -12.48Z M-37.42 -12.42C-38.34 -12.97 -39.38 -13.25 -40.55 -13.25C-41.75 -13.25 -42.82 -12.96 -43.75 -12.4C-44.69 -11.83 -45.42 -11.04 -45.94 -10.02C-46.46 -9 -46.72 -7.85 -46.72 -6.55C-46.72 -5.27 -46.44 -4.12 -45.88 -3.11C-45.32 -2.09 -44.54 -1.3 -43.56 -0.73C-42.58 -0.16 -41.45 0.12 -40.19 0.12C-39.44 0.12 -38.65 -0.03 -37.82 -0.34C-37 -0.64 -36.33 -1.02 -35.82 -1.49C-35.68 -1.63 -35.6 -1.78 -35.6 -1.94C-35.6 -2.14 -35.69 -2.3 -35.87 -2.45C-35.98 -2.54 -36.12 -2.59 -36.3 -2.59C-36.48 -2.59 -36.64 -2.53 -36.8 -2.4C-37.17 -2.05 -37.67 -1.76 -38.3 -1.55C-38.94 -1.33 -39.56 -1.22 -40.19 -1.22C-41.12 -1.22 -41.96 -1.43 -42.71 -1.85C-43.46 -2.26 -44.06 -2.84 -44.51 -3.59C-44.96 -4.33 -45.2 -5.18 -45.25 -6.12L-35.2 -6.12C-34.99 -6.12 -34.82 -6.18 -34.69 -6.3C-34.56 -6.42 -34.5 -6.58 -34.5 -6.79C-34.5 -8.04 -34.76 -9.15 -35.27 -10.13C-35.78 -11.1 -36.5 -11.87 -37.42 -12.42ZM-43.7 -10.66C-42.85 -11.49 -41.8 -11.9 -40.55 -11.9C-39.25 -11.9 -38.18 -11.49 -37.33 -10.66C-36.48 -9.82 -36 -8.73 -35.89 -7.37L-45.23 -7.37C-45.07 -8.73 -44.56 -9.82 -43.7 -10.66Z M-31.66 -18.55C-31.79 -18.42 -31.86 -18.25 -31.86 -18.02L-31.86 -3.96C-31.86 -2.79 -31.57 -1.84 -30.98 -1.1C-30.4 -0.37 -29.65 0 -28.74 0L-28.26 0C-28.04 0 -27.86 -0.07 -27.73 -0.2C-27.6 -0.34 -27.54 -0.51 -27.54 -0.72C-27.54 -0.94 -27.6 -1.12 -27.71 -1.25C-27.82 -1.38 -27.96 -1.44 -28.14 -1.44L-28.74 -1.44C-29.24 -1.44 -29.64 -1.68 -29.95 -2.15C-30.26 -2.62 -30.42 -3.22 -30.42 -3.96L-30.42 -18.02C-30.42 -18.25 -30.48 -18.42 -30.61 -18.55C-30.74 -18.68 -30.92 -18.74 -31.14 -18.74C-31.35 -18.74 -31.52 -18.68 -31.66 -18.55Z M-16.21 -12.4C-17.24 -12.98 -18.37 -13.27 -19.62 -13.27C-20.88 -13.27 -22.03 -12.98 -23.05 -12.4C-24.08 -11.81 -24.88 -11.01 -25.46 -9.98C-26.05 -8.96 -26.34 -7.82 -26.34 -6.55C-26.34 -5.3 -26.05 -4.17 -25.46 -3.14C-24.88 -2.12 -24.08 -1.32 -23.05 -0.73C-22.03 -0.15 -20.88 0.14 -19.62 0.14C-18.37 0.14 -17.24 -0.15 -16.21 -0.73C-15.19 -1.32 -14.38 -2.12 -13.8 -3.14C-13.22 -4.17 -12.92 -5.3 -12.92 -6.55C-12.92 -7.82 -13.22 -8.96 -13.8 -9.98C-14.38 -11.01 -15.19 -11.81 -16.21 -12.4ZM-22.31 -11.22C-21.51 -11.69 -20.61 -11.93 -19.62 -11.93C-18.63 -11.93 -17.73 -11.69 -16.93 -11.22C-16.13 -10.75 -15.5 -10.1 -15.05 -9.29C-14.59 -8.47 -14.36 -7.56 -14.36 -6.55C-14.36 -5.54 -14.59 -4.63 -15.05 -3.82C-15.5 -3 -16.13 -2.36 -16.93 -1.9C-17.73 -1.43 -18.63 -1.2 -19.62 -1.2C-20.61 -1.2 -21.51 -1.43 -22.31 -1.9C-23.11 -2.36 -23.74 -3 -24.2 -3.82C-24.67 -4.63 -24.9 -5.54 -24.9 -6.55C-24.9 -7.56 -24.67 -8.47 -24.2 -9.29C-23.74 -10.1 -23.11 -10.75 -22.31 -11.22Z M0.8 -12.4C-0.22 -12.98 -1.36 -13.27 -2.63 -13.27C-3.86 -13.27 -4.98 -12.99 -6 -12.42C-7.02 -11.85 -7.82 -11.06 -8.41 -10.06C-9 -9.05 -9.31 -7.93 -9.32 -6.7L-9.32 -6.65L-9.32 4.9C-9.32 5.12 -9.26 5.3 -9.12 5.42C-8.98 5.55 -8.81 5.62 -8.6 5.62C-8.38 5.62 -8.2 5.55 -8.08 5.42C-7.95 5.3 -7.88 5.12 -7.88 4.9L-7.88 -2.59C-7.36 -1.74 -6.63 -1.08 -5.71 -0.59C-4.79 -0.1 -3.76 0.14 -2.63 0.14C-1.36 0.14 -0.22 -0.15 0.8 -0.73C1.83 -1.32 2.63 -2.12 3.22 -3.14C3.8 -4.17 4.09 -5.3 4.09 -6.55C4.09 -7.82 3.8 -8.96 3.22 -9.98C2.63 -11.01 1.83 -11.81 0.8 -12.4ZM0.06 -1.9C-0.74 -1.43 -1.64 -1.2 -2.63 -1.2C-3.62 -1.2 -4.52 -1.43 -5.32 -1.9C-6.12 -2.36 -6.74 -3 -7.2 -3.82C-7.66 -4.63 -7.88 -5.54 -7.88 -6.55C-7.88 -7.56 -7.66 -8.47 -7.2 -9.29C-6.74 -10.1 -6.12 -10.75 -5.32 -11.22C-4.52 -11.69 -3.62 -11.93 -2.63 -11.93C-1.64 -11.93 -0.74 -11.69 0.06 -11.22C0.86 -10.75 1.49 -10.1 1.96 -9.29C2.42 -8.47 2.65 -7.56 2.65 -6.55C2.65 -5.54 2.42 -4.63 1.96 -3.82C1.49 -3 0.86 -2.36 0.06 -1.9Z M8.38 -12.94C8.24 -12.81 8.17 -12.63 8.17 -12.41L8.17 -0.72C8.17 -0.51 8.24 -0.34 8.38 -0.2C8.51 -0.07 8.68 0 8.89 0C9.12 0 9.29 -0.07 9.42 -0.2C9.55 -0.34 9.61 -0.51 9.61 -0.72L9.61 -12.41C9.61 -12.63 9.55 -12.81 9.42 -12.94C9.29 -13.06 9.12 -13.13 8.89 -13.13C8.68 -13.13 8.51 -13.06 8.38 -12.94ZM9.67 -17.83C9.46 -18.02 9.2 -18.12 8.89 -18.12C8.59 -18.12 8.32 -18.02 8.1 -17.83C7.88 -17.64 7.76 -17.37 7.76 -17.02C7.76 -16.7 7.87 -16.43 8.08 -16.21C8.28 -16 8.55 -15.89 8.87 -15.89C9.19 -15.89 9.46 -16 9.67 -16.21C9.89 -16.43 10 -16.7 10 -17.02C10 -17.37 9.89 -17.64 9.67 -17.83Z M23.54 -12.58C22.62 -13.06 21.58 -13.3 20.41 -13.3C19.48 -13.3 18.63 -13.11 17.84 -12.73C17.06 -12.36 16.4 -11.83 15.85 -11.16L15.85 -12.41C15.85 -12.63 15.79 -12.81 15.66 -12.94C15.53 -13.06 15.36 -13.13 15.13 -13.13C14.92 -13.13 14.75 -13.06 14.62 -12.94C14.48 -12.81 14.41 -12.63 14.41 -12.41L14.41 -0.72C14.41 -0.51 14.48 -0.34 14.62 -0.2C14.75 -0.07 14.92 0 15.13 0C15.36 0 15.53 -0.07 15.66 -0.2C15.79 -0.34 15.85 -0.51 15.85 -0.72L15.85 -8.06C15.85 -8.77 16.05 -9.41 16.45 -10C16.85 -10.58 17.4 -11.04 18.1 -11.36C18.79 -11.69 19.56 -11.86 20.41 -11.86C21.79 -11.86 22.9 -11.46 23.76 -10.66C24.62 -9.86 25.04 -8.7 25.04 -7.18L25.04 -0.72C25.04 -0.51 25.11 -0.34 25.25 -0.2C25.38 -0.07 25.56 0 25.76 0C25.97 0 26.14 -0.07 26.28 -0.2C26.42 -0.34 26.48 -0.51 26.48 -0.72L26.48 -7.18C26.48 -8.46 26.22 -9.56 25.7 -10.48C25.18 -11.4 24.46 -12.1 23.54 -12.58Z M40.03 -12.41C39.02 -12.98 37.86 -13.27 36.56 -13.27C35.32 -13.27 34.18 -12.98 33.16 -12.41C32.13 -11.83 31.32 -11.03 30.73 -10.01C30.14 -8.98 29.84 -7.83 29.84 -6.55C29.84 -5.26 30.13 -4.1 30.71 -3.08C31.28 -2.07 32.08 -1.28 33.1 -0.71C34.11 -0.14 35.27 0.14 36.56 0.14C37.76 0.14 38.82 -0.13 39.74 -0.67C40.66 -1.22 41.36 -1.96 41.82 -2.9L41.82 -1.85C41.82 -0.81 41.6 0.13 41.15 0.97C40.7 1.81 40.08 2.47 39.3 2.95C38.52 3.43 37.64 3.67 36.66 3.67C35.67 3.67 34.78 3.49 34.01 3.12C33.23 2.75 32.58 2.25 32.05 1.61C31.89 1.4 31.68 1.3 31.43 1.3C31.27 1.3 31.12 1.34 31 1.44C30.84 1.55 30.76 1.7 30.76 1.9C30.76 2.06 30.82 2.22 30.95 2.38C31.59 3.19 32.38 3.84 33.34 4.31C34.29 4.78 35.4 5.02 36.66 5.02C37.89 5.02 39.01 4.72 40.02 4.12C41.03 3.52 41.82 2.69 42.4 1.64C42.97 0.6 43.26 -0.57 43.26 -1.85L43.26 -6.55C43.26 -7.85 42.98 -9 42.41 -10.02C41.84 -11.04 41.05 -11.83 40.03 -12.41ZM39.28 -1.88C38.48 -1.43 37.57 -1.2 36.56 -1.2C35.54 -1.2 34.63 -1.43 33.83 -1.88C33.03 -2.34 32.4 -2.97 31.96 -3.78C31.51 -4.59 31.28 -5.51 31.28 -6.55C31.28 -7.59 31.51 -8.52 31.96 -9.34C32.4 -10.15 33.03 -10.79 33.83 -11.24C34.63 -11.7 35.54 -11.93 36.56 -11.93C37.57 -11.93 38.48 -11.7 39.28 -11.24C40.08 -10.79 40.7 -10.15 41.15 -9.34C41.6 -8.52 41.82 -7.59 41.82 -6.55C41.82 -5.51 41.6 -4.59 41.15 -3.78C40.7 -2.97 40.08 -2.34 39.28 -1.88Z M62.47 -12.42C61.55 -12.97 60.51 -13.25 59.34 -13.25C58.14 -13.25 57.07 -12.96 56.14 -12.4C55.2 -11.83 54.47 -11.04 53.95 -10.02C53.43 -9 53.17 -7.85 53.17 -6.55C53.17 -5.27 53.45 -4.12 54.01 -3.11C54.57 -2.09 55.34 -1.3 56.33 -0.73C57.31 -0.16 58.44 0.12 59.7 0.12C60.45 0.12 61.24 -0.03 62.06 -0.34C62.89 -0.64 63.56 -1.02 64.07 -1.49C64.21 -1.63 64.28 -1.78 64.28 -1.94C64.28 -2.14 64.2 -2.3 64.02 -2.45C63.91 -2.54 63.76 -2.59 63.59 -2.59C63.41 -2.59 63.24 -2.53 63.08 -2.4C62.72 -2.05 62.22 -1.76 61.58 -1.55C60.95 -1.33 60.32 -1.22 59.7 -1.22C58.77 -1.22 57.93 -1.43 57.18 -1.85C56.43 -2.26 55.83 -2.84 55.38 -3.59C54.93 -4.33 54.68 -5.18 54.64 -6.12L64.69 -6.12C64.9 -6.12 65.07 -6.18 65.2 -6.3C65.32 -6.42 65.39 -6.58 65.39 -6.79C65.39 -8.04 65.13 -9.15 64.62 -10.13C64.11 -11.1 63.39 -11.87 62.47 -12.42ZM56.18 -10.66C57.04 -11.49 58.09 -11.9 59.34 -11.9C60.64 -11.9 61.71 -11.49 62.56 -10.66C63.4 -9.82 63.88 -8.73 64 -7.37L54.66 -7.37C54.82 -8.73 55.33 -9.82 56.18 -10.66Z M75.9 -12.48C75.9 -13.01 75.29 -13.27 74.08 -13.27C73.23 -13.27 72.44 -13.06 71.72 -12.65C71 -12.23 70.41 -11.66 69.95 -10.92L69.95 -12.41C69.95 -12.63 69.88 -12.81 69.76 -12.94C69.63 -13.06 69.45 -13.13 69.23 -13.13C69.02 -13.13 68.85 -13.06 68.71 -12.94C68.58 -12.81 68.51 -12.63 68.51 -12.41L68.51 -0.72C68.51 -0.51 68.58 -0.34 68.71 -0.2C68.85 -0.07 69.02 0 69.23 0C69.45 0 69.63 -0.07 69.76 -0.2C69.88 -0.34 69.95 -0.51 69.95 -0.72L69.95 -8.02C69.95 -8.75 70.12 -9.42 70.48 -10.01C70.83 -10.6 71.32 -11.06 71.94 -11.4C72.56 -11.74 73.28 -11.9 74.08 -11.9C74.24 -11.9 74.43 -11.89 74.66 -11.86C74.9 -11.82 75.08 -11.81 75.23 -11.81C75.4 -11.81 75.54 -11.84 75.65 -11.92C75.75 -11.99 75.83 -12.11 75.88 -12.29C75.89 -12.34 75.9 -12.4 75.9 -12.48Z M87.47 -12.4C86.44 -12.98 85.31 -13.27 84.06 -13.27C82.8 -13.27 81.65 -12.98 80.63 -12.4C79.6 -11.81 78.8 -11.01 78.22 -9.98C77.63 -8.96 77.34 -7.82 77.34 -6.55C77.34 -5.3 77.63 -4.17 78.22 -3.14C78.8 -2.12 79.6 -1.32 80.63 -0.73C81.65 -0.15 82.8 0.14 84.06 0.14C85.2 0.14 86.22 -0.1 87.14 -0.59C88.06 -1.08 88.79 -1.74 89.32 -2.59L89.32 -0.72C89.32 -0.51 89.38 -0.34 89.52 -0.2C89.66 -0.07 89.83 0 90.04 0C90.26 0 90.44 -0.07 90.56 -0.2C90.69 -0.34 90.76 -0.51 90.76 -0.72L90.76 -6.55C90.76 -7.82 90.46 -8.96 89.88 -9.98C89.3 -11.01 88.49 -11.81 87.47 -12.4ZM86.75 -1.9C85.95 -1.43 85.05 -1.2 84.06 -1.2C83.07 -1.2 82.17 -1.43 81.37 -1.9C80.57 -2.36 79.94 -3 79.48 -3.82C79.01 -4.63 78.78 -5.54 78.78 -6.55C78.78 -7.56 79.01 -8.47 79.48 -9.29C79.94 -10.1 80.57 -10.75 81.37 -11.22C82.17 -11.69 83.07 -11.93 84.06 -11.93C85.05 -11.93 85.95 -11.69 86.75 -11.22C87.55 -10.75 88.18 -10.1 88.63 -9.29C89.09 -8.47 89.32 -7.56 89.32 -6.55C89.32 -5.54 89.09 -4.63 88.63 -3.82C88.18 -3 87.55 -2.36 86.75 -1.9Z">
                </path>
            </g>
        </g>
    </g>
</svg>